<svg t="1729576549439" class="icon" viewBox="0 0 1024 1024" version="1.1" xmlns="http://www.w3.org/2000/svg" p-id="7182" width="200" height="200"><path d="M931.84 1024 92.16 1024C41.6 1024 0 982.4 0 931.84L0 92.16C0 41.6 41.6 0 92.16 0l839.68 0c50.56 0 92.16 41.6 92.16 92.16l0 839.68C1024 982.4 982.4 1024 931.84 1024zM92.16 64C76.8 64 64 76.8 64 92.16l0 839.68c0 15.36 12.8 28.16 28.16 28.16l839.68 0c15.36 0 28.16-12.8 28.16-28.16L960 92.16c0-15.36-12.8-28.16-28.16-28.16L92.16 64z" p-id="7183"></path><path d="M45.44 188.8l944 0 0 44.8-944 0 0-44.8Z" p-id="7184"></path><path d="M691.2 94.72l51.2 0 0 46.08-51.2 0 0-46.08Z" p-id="7185"></path><path d="M787.2 94.72l51.2 0 0 46.08-51.2 0 0-46.08Z" p-id="7186"></path><path d="M883.2 94.72l44.8 0 0 46.08-44.8 0 0-46.08Z" p-id="7187"></path><path d="M654.72 748.8c-8.32 0-16.64-4.48-21.76-12.16-7.68-12.16-3.84-27.52 8.32-35.2l156.8-97.92-158.08-115.2c-11.52-8.32-14.08-24.32-5.76-35.84 8.32-11.52 24.32-14.08 35.84-5.76l188.8 137.6c7.04 5.12 10.88 12.8 10.24 21.76s-4.48 16-12.16 20.48l-188.8 118.4C664.32 747.52 659.2 748.8 654.72 748.8z" p-id="7188"></path><path d="M368.64 748.8c-5.12 0-10.24-1.92-15.36-5.12L165.12 606.08c-7.04-5.12-10.88-12.8-10.24-21.76s4.48-16 12.16-20.48l188.8-118.4c12.16-7.68 27.52-3.84 35.2 8.32 7.68 12.16 3.84 27.52-8.32 35.2L225.28 586.88l158.08 115.2c11.52 8.32 14.08 24.32 5.76 35.84C384.64 744.96 376.96 748.8 368.64 748.8z" p-id="7189"></path><path d="M455.68 840.96c-2.56 0-4.48 0-7.04-0.64-13.44-3.84-21.76-17.92-17.92-31.36l123.52-442.88c3.84-13.44 17.92-21.76 31.36-17.92 13.44 3.84 21.76 17.92 17.92 31.36l-123.52 442.88C477.44 833.28 467.2 840.96 455.68 840.96z" p-id="7190"></path></svg>