<?xml version="1.0" standalone="no"?><!DOCTYPE svg PUBLIC "-//W3C//DTD SVG 1.1//EN" "http://www.w3.org/Graphics/SVG/1.1/DTD/svg11.dtd"><svg t="1745914638571" class="icon" viewBox="0 0 1024 1024" version="1.1" xmlns="http://www.w3.org/2000/svg" p-id="11266" width="32" height="32" xmlns:xlink="http://www.w3.org/1999/xlink"><path d="M597.333333 85.333333l256 256v512a85.333333 85.333333 0 0 1-85.333333 85.333334H256a85.333333 85.333333 0 0 1-85.333333-85.333334V170.666667a85.333333 85.333333 0 0 1 85.333333-85.333334h341.333333z m-42.666666 85.333334H256v682.666666h512V384l-213.333333-213.333333z m42.666666 512v85.333333h-85.333333v-85.333333h85.333333z m-85.333333-85.333334v85.333334h-85.333333v-85.333334h85.333333z m85.333333-85.333333v85.333333h-85.333333v-85.333333h85.333333z m-85.333333-85.333333v85.333333h-85.333333v-85.333333h85.333333z m85.333333-85.333334v85.333334h-85.333333V341.333333h85.333333z m-85.333333-85.333333v85.333333h-85.333333V256h85.333333z" fill="#dbdbdb" p-id="11267"></path></svg>